<svg data-v-423bf9ae="" xmlns="http://www.w3.org/2000/svg" viewBox="0 0 612.7272931768463 163" class="iconAbove"><!----><!----><!----><g data-v-423bf9ae="" id="8b2a69ee-24b7-4037-bc3b-1ddf1eb8aeb3" fill="black" transform="matrix(4.9140052824657,0,0,4.9140052824657,-3.390669252451687,98.18427520629356)"><path d="M4.72 1.96L5.04 1.33L6.62 1.33L6.62 1.33Q5.21 4.13 4.10 5.78L4.10 5.78L4.10 5.78Q4.51 6.41 5.15 7.59L5.15 7.59L6.72 10.50L5.14 10.50L5.14 10.50Q3.72 7.77 2.97 6.57L2.97 6.57L2.10 6.65L2.10 10.50L0.69 10.50L0.69 1.33L2.10 1.33L2.10 5.32L2.86 5.21L2.86 5.21Q3.78 3.78 4.72 1.96L4.72 1.96ZM9.23 5.60L9.23 5.60L9.23 10.50L7.78 10.50L7.78 1.16L9.23 1.16L9.23 4.24L9.23 4.24Q10.36 3.74 11.00 3.74L11.00 3.74L11.00 3.74Q12.21 3.74 12.71 4.44L12.71 4.44L12.71 4.44Q13.20 5.14 13.20 6.48L13.20 6.48L13.20 10.50L11.76 10.50L11.76 6.45L11.76 6.45Q11.76 5.87 11.53 5.48L11.53 5.48L11.53 5.48Q11.30 5.10 10.92 5.10L10.92 5.10L10.92 5.10Q10.23 5.10 9.23 5.60ZM17.02 9.30L17.02 9.30L17.02 9.30Q17.42 9.30 17.89 9.11L17.89 9.11L17.89 9.11Q18.37 8.93 18.65 8.71L18.65 8.71L18.65 7.73L18.65 7.73Q17.81 7.66 17.28 7.66L17.28 7.66L17.28 7.66Q16.11 7.66 16.11 8.53L16.11 8.53L16.11 8.53Q16.11 9.30 17.02 9.30ZM16.80 10.65L16.80 10.65L16.80 10.65Q14.56 10.65 14.56 8.53L14.56 8.53L14.56 8.53Q14.56 7.39 15.28 6.94L15.28 6.94L15.28 6.94Q16.00 6.48 17.28 6.48L17.28 6.48L17.28 6.48Q17.88 6.48 18.65 6.55L18.65 6.55L18.65 6.55Q18.65 5.71 18.41 5.40L18.41 5.40L18.41 5.40Q18.17 5.10 17.58 5.10L17.58 5.10L17.58 5.10Q17.00 5.10 16.21 5.24L16.21 5.24L16.21 5.24Q15.43 5.38 15.01 5.52L15.01 5.52L14.74 4.19L14.74 4.19Q16.21 3.74 17.61 3.74L17.61 3.74L17.61 3.74Q19.01 3.74 19.55 4.35L19.55 4.35L19.55 4.35Q20.09 4.97 20.09 6.44L20.09 6.44L20.09 9.28L20.24 10.51L18.80 10.65L18.66 10.01L18.66 10.01Q17.49 10.65 16.80 10.65ZM23.21 5.14L22.13 5.14L22.13 3.85L24.65 3.85L24.68 4.52L24.68 4.52Q25.13 4.27 25.85 4.04L25.85 4.04L25.85 4.04Q26.57 3.81 27.19 3.74L27.19 3.74L27.19 5.14L27.19 5.14Q26.64 5.19 25.89 5.43L25.89 5.43L25.89 5.43Q25.13 5.67 24.68 5.92L24.68 5.92L24.68 9.24L26.73 9.24L26.73 10.50L22.13 10.50L22.13 9.21L23.21 9.21L23.21 5.14ZM33.11 3.85L33.11 3.85L34.66 3.85L34.66 3.85Q33.10 6.40 32.62 6.96L32.62 6.96L32.62 6.96Q32.89 7.34 33.28 7.97L33.28 7.97L34.79 10.50L33.12 10.50L32.47 9.32L32.47 9.32Q31.81 8.15 31.50 7.66L31.50 7.66L30.52 7.77L30.52 10.50L29.08 10.50L29.08 1.16L30.52 1.16L30.52 6.52L31.47 6.43L31.47 6.43Q31.84 5.95 32.47 4.91L32.47 4.91L32.47 4.91Q33.10 3.86 33.11 3.85ZM38.00 5.17L36.44 5.17L36.44 3.88L39.44 3.88L39.44 9.21L40.99 9.21L40.99 10.50L36.33 10.50L36.33 9.21L38.00 9.21L38.00 5.17ZM38.04 2.65L38.04 2.65L38.04 2.65Q37.77 2.38 37.77 2.02L37.77 2.02L37.77 2.02Q37.77 1.65 38.02 1.40L38.02 1.40L38.02 1.40Q38.28 1.15 38.64 1.15L38.64 1.15L38.64 1.15Q39.00 1.15 39.26 1.39L39.26 1.39L39.26 1.39Q39.51 1.64 39.51 2.02L39.51 2.02L39.51 2.02Q39.51 2.39 39.26 2.66L39.26 2.66L39.26 2.66Q39.00 2.93 38.65 2.93L38.65 2.93L38.65 2.93Q38.30 2.93 38.04 2.65ZM44.28 10.50L42.46 3.85L44.00 3.85L45.42 9.23L45.67 9.23L47.03 3.85L48.55 3.85L46.77 10.50L44.28 10.50ZM58.28 9.24L58.28 5.11L56.91 5.11L56.91 3.85L58.28 3.85L58.28 3.85Q58.28 2.31 58.79 1.64L58.79 1.64L58.79 1.64Q59.29 0.98 60.51 0.98L60.51 0.98L60.51 0.98Q61.33 0.98 62.33 1.22L62.33 1.22L62.10 2.49L62.10 2.49Q61.24 2.30 60.65 2.30L60.65 2.30L60.65 2.30Q60.06 2.30 59.87 2.65L59.87 2.65L59.87 2.65Q59.68 3.00 59.68 3.85L59.68 3.85L62.08 3.85L62.08 5.11L59.68 5.11L59.68 9.24L62.10 9.24L62.10 10.50L56.85 10.50L56.85 9.24L58.28 9.24ZM64.30 4.58L64.30 4.58L64.30 4.58Q65.02 3.74 66.50 3.74L66.50 3.74L66.50 3.74Q67.98 3.74 68.70 4.58L68.70 4.58L68.70 4.58Q69.41 5.43 69.41 7.20L69.41 7.20L69.41 7.20Q69.41 8.96 68.70 9.82L68.70 9.82L68.70 9.82Q67.98 10.68 66.50 10.68L66.50 10.68L66.50 10.68Q65.02 10.68 64.30 9.82L64.30 9.82L64.30 9.82Q63.59 8.96 63.59 7.20L63.59 7.20L63.59 7.20Q63.59 5.43 64.30 4.58ZM65.43 5.59L65.43 5.59L65.43 5.59Q65.14 6.08 65.14 7.20L65.14 7.20L65.14 7.20Q65.14 8.32 65.44 8.82L65.44 8.82L65.44 8.82Q65.73 9.32 66.50 9.32L66.50 9.32L66.50 9.32Q67.27 9.32 67.56 8.82L67.56 8.82L67.56 8.82Q67.86 8.32 67.86 7.20L67.86 7.20L67.86 7.20Q67.86 6.08 67.57 5.59L67.57 5.59L67.57 5.59Q67.28 5.10 66.50 5.10L66.50 5.10L66.50 5.10Q65.72 5.10 65.43 5.59ZM72.21 5.14L71.13 5.14L71.13 3.85L73.65 3.85L73.68 4.52L73.68 4.52Q74.13 4.27 74.85 4.04L74.85 4.04L74.85 4.04Q75.57 3.81 76.19 3.74L76.19 3.74L76.19 5.14L76.19 5.14Q75.64 5.19 74.89 5.43L74.89 5.43L74.89 5.43Q74.13 5.67 73.68 5.92L73.68 5.92L73.68 9.24L75.73 9.24L75.73 10.50L71.13 10.50L71.13 9.21L72.21 9.21L72.21 5.14ZM86.24 13.19L84.80 13.19L84.80 5.05L84.71 3.85L86.11 3.75L86.20 4.37L86.20 4.37Q87.14 3.74 87.86 3.74L87.86 3.74L87.86 3.74Q89.28 3.74 89.94 4.57L89.94 4.57L89.94 4.57Q90.61 5.40 90.61 7.17L90.61 7.17L90.61 7.17Q90.61 8.93 89.80 9.79L89.80 9.79L89.80 9.79Q88.98 10.65 87.49 10.65L87.49 10.65L87.49 10.65Q86.98 10.65 86.24 10.36L86.24 10.36L86.24 13.19ZM87.81 5.08L87.81 5.08L87.81 5.08Q87.16 5.08 86.24 5.70L86.24 5.70L86.24 9.03L86.24 9.03Q86.91 9.32 87.46 9.32L87.46 9.32L87.46 9.32Q89.05 9.32 89.05 7.20L89.05 7.20L89.05 7.20Q89.05 5.07 87.81 5.08ZM91.69 7.18L91.69 7.18Q91.69 5.49 92.44 4.61L92.44 4.61L92.44 4.61Q93.20 3.74 94.54 3.74L94.54 3.74L94.54 3.74Q95.89 3.74 96.62 4.53L96.62 4.53L96.62 4.53Q97.36 5.32 97.38 6.85L97.38 6.85L97.33 7.88L93.24 7.88L93.24 7.88Q93.37 9.39 94.75 9.39L94.75 9.39L94.75 9.39Q95.72 9.39 96.80 9.04L96.80 9.04L97.09 10.26L97.09 10.26Q96.64 10.42 95.93 10.54L95.93 10.54L95.93 10.54Q95.21 10.65 94.75 10.65L94.75 10.65L94.75 10.65Q91.69 10.65 91.69 7.18L91.69 7.18ZM94.60 5.04L94.60 5.04L94.60 5.04Q93.94 5.04 93.61 5.42L93.61 5.42L93.61 5.42Q93.28 5.81 93.24 6.71L93.24 6.71L95.83 6.71L95.83 6.71Q95.83 5.04 94.60 5.04ZM99.30 4.58L99.30 4.58L99.30 4.58Q100.02 3.74 101.50 3.74L101.50 3.74L101.50 3.74Q102.98 3.74 103.70 4.58L103.70 4.58L103.70 4.58Q104.41 5.43 104.41 7.20L104.41 7.20L104.41 7.20Q104.41 8.96 103.70 9.82L103.70 9.82L103.70 9.82Q102.98 10.68 101.50 10.68L101.50 10.68L101.50 10.68Q100.02 10.68 99.30 9.82L99.30 9.82L99.30 9.82Q98.59 8.96 98.59 7.20L98.59 7.20L98.59 7.20Q98.59 5.43 99.30 4.58ZM100.43 5.59L100.43 5.59L100.43 5.59Q100.14 6.08 100.14 7.20L100.14 7.20L100.14 7.20Q100.14 8.32 100.44 8.82L100.44 8.82L100.44 8.82Q100.73 9.32 101.50 9.32L101.50 9.32L101.50 9.32Q102.27 9.32 102.56 8.82L102.56 8.82L102.56 8.82Q102.86 8.32 102.86 7.20L102.86 7.20L102.86 7.20Q102.86 6.08 102.57 5.59L102.57 5.59L102.57 5.59Q102.28 5.10 101.50 5.10L101.50 5.10L101.50 5.10Q100.72 5.10 100.43 5.59ZM107.24 13.19L105.80 13.19L105.80 5.05L105.71 3.85L107.11 3.75L107.20 4.37L107.20 4.37Q108.14 3.74 108.86 3.74L108.86 3.74L108.86 3.74Q110.28 3.74 110.94 4.57L110.94 4.57L110.94 4.57Q111.61 5.40 111.61 7.17L111.61 7.17L111.61 7.17Q111.61 8.93 110.80 9.79L110.80 9.79L110.80 9.79Q109.98 10.65 108.49 10.65L108.49 10.65L108.49 10.65Q107.98 10.65 107.24 10.36L107.24 10.36L107.24 13.19ZM108.81 5.08L108.81 5.08L108.81 5.08Q108.16 5.08 107.24 5.70L107.24 5.70L107.24 9.03L107.24 9.03Q107.91 9.32 108.46 9.32L108.46 9.32L108.46 9.32Q110.05 9.32 110.05 7.20L110.05 7.20L110.05 7.20Q110.05 5.07 108.81 5.08ZM114.91 2.44L113.39 2.45L113.37 1.18L116.35 1.16L116.35 9.24L117.92 9.24L117.92 10.50L113.33 10.50L113.33 9.24L114.91 9.24L114.91 2.44ZM119.69 7.18L119.69 7.18Q119.69 5.49 120.44 4.61L120.44 4.61L120.44 4.61Q121.20 3.74 122.54 3.74L122.54 3.74L122.54 3.74Q123.89 3.74 124.62 4.53L124.62 4.53L124.62 4.53Q125.36 5.32 125.38 6.85L125.38 6.85L125.33 7.88L121.24 7.88L121.24 7.88Q121.37 9.39 122.75 9.39L122.75 9.39L122.75 9.39Q123.72 9.39 124.80 9.04L124.80 9.04L125.09 10.26L125.09 10.26Q124.64 10.42 123.93 10.54L123.93 10.54L123.93 10.54Q123.21 10.65 122.75 10.65L122.75 10.65L122.75 10.65Q119.69 10.65 119.69 7.18L119.69 7.18ZM122.60 5.04L122.60 5.04L122.60 5.04Q121.94 5.04 121.61 5.42L121.61 5.42L121.61 5.42Q121.28 5.81 121.24 6.71L121.24 6.71L123.83 6.71L123.83 6.71Q123.83 5.04 122.60 5.04Z"></path></g><!----><g data-v-423bf9ae="" id="35623543-33bb-4d41-ba57-b8450a4bf286" transform="matrix(1.9565217391304348,0,0,1.9565217391304348,209.17391304347825,-50.86956521739131)" stroke="none" fill="black"><path d="M88.896 45.39L79 55.339V34H64v16h-5V26H30v24.977l-.015-.198-12.307-15.075L2 51.373V72h11V61h6v11h79V54.546l-9.104-9.156zM40 48h-6v-6h6v6zm0-12h-6v-6h6v6zm15 12h-6v-6h6v6zm0-12h-6v-6h6v6zm31 30h-2v-7h2v7zm4 0h-2v-7h2v7z"></path></g><!----></svg>